<svg xmlns="http://www.w3.org/2000/svg" viewBox="0 0 256 255">
  <defs>
    <linearGradient id="a" x1="0%" y1="0%" x2="100%" y2="100%">
      <stop offset="0%" stop-color="#5A9FD4"/>
      <stop offset="100%" stop-color="#306998"/>
    </linearGradient>
    <linearGradient id="b" x1="0%" y1="0%" x2="100%" y2="100%">
      <stop offset="0%" stop-color="#FFD43B"/>
      <stop offset="100%" stop-color="#FFE873"/>
    </linearGradient>
  </defs>

  <path fill="url(#a)" d="M126.9 0c-64 0-60 27.7-60 27.7l.1 28.7h61v8.6H43.1S0 60.1 0 128c0 67.9 37.6 65.4 37.6 65.4h22.4v-31.5s-1.2-37.6 36.9-37.6h61.6s34.6.6 34.6-33.5V33.5S198.4 0 128 0h-1.1z"/>
  <path fill="url(#b)" d="M129.1 255c64 0 60-27.7 60-27.7l-.1-28.7h-61v-8.6h84.9s43.1 4.9 43.1-63c0-67.9-37.6-65.4-37.6-65.4h-22.4v31.5s1.2 37.6-36.9 37.6h-61.6s-34.6-.6-34.6 33.5v57.2s-5.3 33.6 65.1 33.6h1.1z"/>
</svg>
